<svg width="80" height="75" viewBox="0 0 80 75" fill="none" xmlns="http://www.w3.org/2000/svg">
<path d="M45.7143 61.8125C45.7143 62.6161 45.0893 63.2857 44.2857 63.2857H35.7143C34.9107 63.2857 34.2857 62.6161 34.2857 61.8125V53.3304C34.2857 52.5268 34.9107 51.8571 35.7143 51.8571H44.2857C45.0893 51.8571 45.7143 52.5268 45.7143 53.3304V61.8125ZM45.625 45.1161C45.5804 45.6964 44.9107 46.1429 44.1071 46.1429H35.8482C35 46.1429 34.3304 45.6964 34.3304 45.1161L33.5714 24.7143C33.5714 24.4464 33.7054 24 34.0179 23.7768C34.2857 23.5536 34.6875 23.2857 35.0893 23.2857H44.9107C45.3125 23.2857 45.7143 23.5536 45.9821 23.7768C46.2946 24 46.4286 24.3571 46.4286 24.625L45.625 45.1161ZM45 3.41964C44.0179 1.58928 42.0982 0.428566 40 0.428566C37.9018 0.428566 35.9821 1.58928 35 3.41964L0.714286 66.2768C-0.267857 68.0179 -0.223214 70.1607 0.803571 71.9018C1.83036 73.6429 3.70536 74.7143 5.71429 74.7143H74.2857C76.2946 74.7143 78.1696 73.6429 79.1964 71.9018C80.2232 70.1607 80.2679 68.0179 79.2857 66.2768L45 3.41964Z" fill="#722C2D"/>
</svg>
