<svg width="86" height="86" viewBox="0 0 86 86" fill="none" xmlns="http://www.w3.org/2000/svg">
<g clip-path="url(#clip0)">
<path d="M18.1978 14.8054H83.0559V57.5703H18.1978V14.8054Z" fill="#DBE2EB"/>
<path d="M83.354 12.9792H17.8986C17.197 12.9792 16.5242 13.2579 16.0282 13.754C15.5321 14.2501 15.2534 14.9229 15.2534 15.6244C15.2534 16.326 15.5321 16.9988 16.0282 17.4948C16.5242 17.9909 17.197 18.2696 17.8986 18.2696H83.354C84.0555 18.2696 84.7283 17.9909 85.2244 17.4948C85.7205 16.9988 85.9992 16.326 85.9992 15.6244C85.9992 14.9229 85.7205 14.2501 85.2244 13.754C84.7283 13.2579 84.0555 12.9792 83.354 12.9792Z" fill="#43567C"/>
<path d="M85.9999 15.6265C85.9983 16.3275 85.7187 16.9992 85.2224 17.4942C84.7261 17.9893 84.0537 18.2672 83.3528 18.267H17.8994C17.2481 18.2672 16.6196 18.0275 16.1338 17.5938C15.648 17.16 15.3389 16.5626 15.2656 15.9154C15.6722 16.1637 16.1397 16.294 16.6161 16.2917H82.0702C82.7719 16.2904 83.4446 16.0112 83.9409 15.515C84.4371 15.0189 84.7166 14.3463 84.718 13.6445C84.7183 13.5456 84.7114 13.4468 84.6972 13.3489C85.0945 13.5815 85.4238 13.9143 85.6524 14.3139C85.881 14.7136 86.0008 15.1661 85.9999 15.6265Z" fill="#384868"/>
<path d="M83.5849 57.1504H17.2742C17.1716 57.1473 17.0695 57.1649 16.9739 57.202C16.8783 57.2392 16.7911 57.2951 16.7175 57.3666C16.6439 57.4381 16.5854 57.5236 16.5454 57.618C16.5055 57.7125 16.4849 57.8141 16.4849 57.9166C16.4849 58.0192 16.5055 58.1208 16.5454 58.2152C16.5854 58.3097 16.6439 58.3952 16.7175 58.4667C16.7911 58.5381 16.8783 58.5941 16.9739 58.6312C17.0695 58.6684 17.1716 58.6859 17.2742 58.6829H83.5882C83.6908 58.6859 83.7929 58.6684 83.8885 58.6312C83.9841 58.5941 84.0713 58.5381 84.1449 58.4667C84.2185 58.3952 84.277 58.3097 84.317 58.2152C84.3569 58.1208 84.3775 58.0192 84.3775 57.9166C84.3775 57.8141 84.3569 57.7125 84.317 57.618C84.277 57.5236 84.2185 57.4381 84.1449 57.3666C84.0713 57.2951 83.9841 57.2392 83.8885 57.202C83.7929 57.1649 83.6908 57.1473 83.5882 57.1504H83.5849Z" fill="#43567C"/>
<path d="M48.7107 58.445L50.6316 55.0373C50.7875 54.7615 50.8484 54.4422 50.8048 54.1284C50.7612 53.8147 50.6156 53.524 50.3904 53.3012C50.2413 53.1543 50.0621 53.0416 49.8651 52.9708C49.6682 52.9001 49.4582 52.873 49.2497 52.8915C49.0412 52.91 48.8393 52.9735 48.6578 53.0778C48.4763 53.1821 48.3197 53.3245 48.1988 53.4953L45.7048 58.3765L44.9482 62.5515L49.8442 66.1286L51.4997 63.9329L54.9303 58.6862L48.7107 58.445Z" fill="#F0C191"/>
<path d="M50.6272 65.4426L40.8051 83.0243L39.1422 85.9993L34.8281 75.7277L39.6824 69.0351L44.7833 61.9912L50.6272 65.4426Z" fill="#4FA4D1"/>
<path d="M27.1355 68.9794L27.0011 63.3732C26.3292 63.2234 25.7917 61.8951 25.1467 61.7856V56.6323H14.7139V61.7224C14.0957 61.8212 13.4467 61.9462 12.7876 62.0839V68.9794H27.1355Z" fill="#DDB087"/>
<path d="M36.4649 66.1193C33.2964 63.5836 28.2062 62.307 24.4619 61.6788V60.2457C23.4797 61.2692 22.2485 62.0198 20.8888 62.4239C20.5918 62.5319 20.2831 62.6043 19.969 62.6396C18.6194 62.5786 17.3108 62.1573 16.179 61.4195C15.8604 61.2027 15.5638 60.9552 15.2935 60.6804V61.6164C11.5195 62.221 6.18418 63.4976 2.90678 66.1179C-1.15874 69.3725 0.227339 86 0.227339 86H39.1444C39.1444 86 40.5304 69.3725 36.4649 66.1193Z" fill="#4FA4D1"/>
<path d="M16.1801 61.4214C16.4827 61.6206 16.8016 61.7936 17.1335 61.9388C13.5994 62.6375 9.32628 63.8939 6.55144 66.1178C2.47987 69.3697 3.87066 85.9986 3.87066 85.9986H0.229765C0.229765 85.9986 -1.16169 69.3697 2.90383 66.1178C6.18191 63.4975 11.5166 62.221 15.2925 61.6163V60.6824C15.564 60.9566 15.8612 61.2041 16.1801 61.4214Z" fill="#4C9DC1"/>
<path d="M22.0377 61.9919C21.6698 62.1738 21.2847 62.3185 20.8881 62.424C20.5911 62.532 20.2823 62.6043 19.9683 62.6396C19.932 62.6396 19.8937 62.6336 19.8574 62.6322V86.0001H22.0377V61.9919Z" fill="#6BB3D9"/>
<path d="M20.1625 59.7573C25.8024 59.7573 30.3743 53.4604 30.3743 45.6929C30.3743 37.9254 25.8024 31.6285 20.1625 31.6285C14.5227 31.6285 9.95068 37.9254 9.95068 45.6929C9.95068 53.4604 14.5227 59.7573 20.1625 59.7573Z" fill="#F0C191"/>
<path d="M29.7164 33.3814C27.0095 30.9062 27.473 37.3273 27.473 37.3273C27.473 37.3273 29.8636 43.3742 29.4685 47.1367C29.4624 47.1853 29.4667 47.2347 29.4812 47.2816C29.4956 47.3285 29.5198 47.3718 29.5522 47.4086C29.5846 47.4454 29.6244 47.475 29.669 47.4953C29.7137 47.5156 29.7621 47.5262 29.8112 47.5263H30.6544C30.7393 47.5275 30.8216 47.4971 30.8853 47.441C30.949 47.3849 30.9896 47.307 30.9991 47.2227C31.2053 45.3737 32.1654 35.6201 29.7164 33.3814Z" fill="#43567C"/>
<path d="M25.149 59.3595L20.8887 62.4239L25.2202 65.4393L26.2455 62.0114L25.149 59.3595Z" fill="#6BB3D9"/>
<path d="M14.7155 59.1827L20.8887 62.4239L15.9793 65.8988L13.5713 61.9213L14.7155 59.1827Z" fill="#6BB3D9"/>
<path d="M30.3642 32.1701C30.3505 31.7519 30.2237 31.3451 29.9974 30.9931C29.7711 30.641 29.4537 30.3568 29.0789 30.1706C20.9365 26.1535 9.61271 28.9935 8.51957 35.0316C7.66628 39.7576 8.08621 45.6123 8.35428 48.2803C8.39363 48.6767 8.57896 49.0443 8.87425 49.3117C9.16953 49.579 9.55367 49.727 9.952 49.7269H10.4143C10.538 49.7277 10.6604 49.7023 10.7735 49.6522C10.8867 49.6021 10.9878 49.5286 11.0704 49.4365C11.153 49.3444 11.2151 49.2358 11.2525 49.1179C11.29 49 11.302 48.8755 11.2877 48.7527C10.7455 43.7633 13.5385 38.6409 13.5385 38.6409C13.5385 38.6409 20.9291 38.4622 26.2053 38.6409C30.0962 38.7673 30.4476 34.4471 30.3642 32.1701Z" fill="#43567C"/>
<path d="M26.2033 38.6382C20.9223 38.4635 13.5384 38.6382 13.5384 38.6382C13.5384 38.6382 10.7434 43.7646 11.2877 48.7499C11.3012 48.8727 11.2886 48.9969 11.2509 49.1144C11.2132 49.232 11.151 49.3403 11.0686 49.4322C10.9862 49.5242 10.8853 49.5977 10.7726 49.648C10.6598 49.6983 10.5377 49.7242 10.4142 49.7242H9.95063C9.55345 49.7233 9.17073 49.5751 8.87656 49.3082C8.58239 49.0414 8.39771 48.6748 8.35828 48.2796C8.35933 48.268 8.35699 48.2564 8.35156 48.246C8.49243 48.2813 8.63703 48.2993 8.78223 48.2998H9.23844C9.36175 48.2993 9.4836 48.273 9.59611 48.2226C9.70862 48.1721 9.80929 48.0986 9.8916 48.0067C9.97392 47.9149 10.0361 47.8069 10.074 47.6895C10.1119 47.5722 10.1248 47.4482 10.1119 47.3256C9.56766 42.3335 12.3627 37.2139 12.3627 37.2139C12.3627 37.2139 19.7466 37.0324 25.0275 37.2139C28.9177 37.3415 29.2744 33.0214 29.1864 30.7437C29.1792 30.5523 29.1475 30.3627 29.0923 30.1793C29.4633 30.366 29.7771 30.6492 30.0005 30.9992C30.224 31.3492 30.349 31.753 30.3622 32.1681C30.4509 34.4457 30.0941 38.7672 26.2033 38.6382Z" fill="#384868"/>
<path d="M45.3789 33.2498H49.1488V47.1065H45.3789V33.2498Z" fill="#F6BA5B"/>
<path d="M52.1348 27.7363H55.9047V47.1065H52.1348V27.7363Z" fill="#C76DA5"/>
<path d="M58.8906 38.2928H62.6605V47.1065H58.8906V38.2928Z" fill="#477EA8"/>
<path d="M65.647 30.6805H69.4169V47.1065H65.647V30.6805Z" fill="#EF5361"/>
<path d="M71.5195 49.8075H41.9617C41.7757 49.8075 41.5972 49.7336 41.4657 49.602C41.3342 49.4705 41.2603 49.2921 41.2603 49.106V25.3391C41.2603 25.1531 41.3342 24.9747 41.4657 24.8431C41.5972 24.7116 41.7757 24.6377 41.9617 24.6377C42.1477 24.6377 42.3261 24.7116 42.4577 24.8431C42.5892 24.9747 42.6631 25.1531 42.6631 25.3391V48.4046H71.5195C71.7055 48.4046 71.884 48.4785 72.0155 48.61C72.147 48.7416 72.2209 48.92 72.2209 49.106C72.2209 49.2921 72.147 49.4705 72.0155 49.602C71.884 49.7336 71.7055 49.8075 71.5195 49.8075Z" fill="#43567C"/>
</g>
<defs>
<clipPath id="clip0">
<rect width="86" height="86" fill="white"/>
</clipPath>
</defs>
</svg>
