<svg width="103" height="103" viewBox="0 0 103 103" fill="none" xmlns="http://www.w3.org/2000/svg">
<path d="M99.9567 16.8526H69.9418C69.1346 16.8526 68.3605 17.1732 67.7896 17.7439C67.2187 18.3146 66.8979 19.0887 66.8977 19.8959V36.6881C66.8977 37.4955 67.2184 38.2698 67.7893 38.8406C68.3602 39.4115 69.1345 39.7323 69.9418 39.7323H72.6713V44.4992L71.9294 45.8205H72.6713L78.762 39.7306H99.9567C100.764 39.7304 101.537 39.4098 102.108 38.8393C102.679 38.2688 103 37.4951 103 36.6881V19.8959C103 19.0888 102.679 18.3147 102.109 17.7439C101.538 17.1732 100.764 16.8526 99.9567 16.8526Z" fill="#477EA8"/>
<path d="M62.5096 55.6433C59.4317 53.2912 56.7207 46.4176 58.1643 43.1562C59.579 39.9857 56.5284 27.884 56.3723 27.2684L56.3634 27.2411C56.3634 27.2411 63.0528 19.4678 53.4665 15.3051C43.8803 11.1425 25.7901 8.78717 17.6491 11.8683C10.6628 14.5021 -0.579483 23.1339 0.0264471 38.7899C0.181398 42.8372 1.51459 46.7512 3.86239 50.0516C7.0065 54.5612 8.80249 59.8724 9.04056 65.3648C9.26357 70.6714 8.43917 75.97 6.61442 80.958L35.7433 92.5391C36.2849 92.7233 38.0858 83.4976 41.8903 80.0608C45.6949 76.6239 54.1843 82.7718 56.3626 77.3506C58.5409 71.9294 54.5521 72.1032 56.3626 70.1084C56.8714 69.6238 57.265 69.0314 57.5147 68.3747C57.7644 67.718 57.8637 67.0136 57.8054 66.3135C58.0562 65.1796 58.0656 64.0056 57.8328 62.8678C57.4465 61.0669 58.5313 61.7927 61.2414 61.6093C63.9516 61.4258 65.5819 57.9866 62.5096 55.6433Z" fill="#F0C191"/>
<path d="M56.3595 27.2419C56.3595 27.2419 46.7692 22.5353 43.1546 27.2419C39.5399 31.9485 46.2269 35.3853 40.4372 43.1554C34.6474 50.9255 37.0003 56.7249 37.0003 56.7249L33.3865 57.808C33.3865 57.808 33.2086 41.6104 26.5217 41.4865C19.817 41.3441 21.4956 53.3588 22.7654 61.3156L9.03664 65.3648C9.01894 65.0429 8.99211 64.7234 8.95617 64.4064C8.58732 59.2484 6.82913 54.2863 3.86813 50.0468C1.51775 46.7474 0.181504 42.8338 0.0233341 38.786C-0.580182 23.1396 10.6621 14.4989 17.6508 11.8708C24.444 9.29576 38.1703 10.5116 48.0921 13.4069C49.9196 13.9322 51.7138 14.5669 53.465 15.3076C63.0553 19.463 56.3595 27.2419 56.3595 27.2419Z" fill="#43567C"/>
<path d="M99.2178 16.8526H69.203C68.3959 16.8526 67.6218 17.1732 67.051 17.7439C66.4803 18.3147 66.1597 19.0888 66.1597 19.8959V36.6881C66.1597 37.4953 66.4803 38.2695 67.051 38.8404C67.6217 39.4112 68.3958 39.732 69.203 39.7323H71.9341V45.8229L78.0248 39.7323H99.2178C100.025 39.732 100.799 39.4112 101.37 38.8404C101.941 38.2695 102.261 37.4953 102.261 36.6881V19.8959C102.261 19.0888 101.941 18.3147 101.37 17.7439C100.799 17.1732 100.025 16.8526 99.2178 16.8526Z" fill="#4FA4D1"/>
<path d="M76.7331 25.5987C76.2482 25.5987 75.7742 25.7425 75.3709 26.0119C74.9677 26.2814 74.6535 26.6643 74.4679 27.1123C74.2823 27.5603 74.2338 28.0533 74.3284 28.5289C74.423 29.0046 74.6565 29.4414 74.9994 29.7844C75.3423 30.1273 75.7792 30.3608 76.2548 30.4554C76.7304 30.55 77.2234 30.5014 77.6714 30.3159C78.1195 30.1303 78.5024 29.816 78.7718 29.4128C79.0412 29.0096 79.185 28.5355 79.185 28.0506C79.185 27.4003 78.9267 26.7767 78.4669 26.3169C78.0071 25.857 77.3834 25.5987 76.7331 25.5987Z" fill="#DBE2EB"/>
<path d="M84.9483 25.5987C84.4633 25.5986 83.9892 25.7422 83.5859 26.0116C83.1826 26.2809 82.8682 26.6637 82.6825 27.1118C82.4968 27.5598 82.4481 28.0528 82.5426 28.5285C82.6371 29.0041 82.8706 29.4411 83.2135 29.7841C83.5563 30.1271 83.9932 30.3607 84.4689 30.4553C84.9445 30.55 85.4375 30.5015 85.8856 30.3159C86.3337 30.1304 86.7166 29.8161 86.9861 29.4129C87.2555 29.0097 87.3994 28.5356 87.3994 28.0506C87.3994 27.4005 87.1412 26.7769 86.6815 26.3171C86.2219 25.8574 85.5984 25.5989 84.9483 25.5987Z" fill="#DBE2EB"/>
<path d="M93.1626 25.5987C92.6776 25.5987 92.2036 25.7425 91.8004 26.0119C91.3972 26.2814 91.0829 26.6643 90.8973 27.1123C90.7118 27.5603 90.6632 28.0533 90.7578 28.5289C90.8524 29.0046 91.0859 29.4414 91.4288 29.7844C91.7717 30.1273 92.2086 30.3608 92.6842 30.4554C93.1599 30.55 93.6528 30.5014 94.1009 30.3159C94.5489 30.1303 94.9318 29.816 95.2012 29.4128C95.4706 29.0096 95.6144 28.5355 95.6144 28.0506C95.6144 27.4003 95.3561 26.7767 94.8963 26.3169C94.4365 25.857 93.8129 25.5987 93.1626 25.5987Z" fill="#DBE2EB"/>
<path d="M56.3594 27.2419C56.3594 27.2419 46.7691 22.5353 43.1545 27.2419C39.5398 31.9485 46.2268 35.3853 40.437 43.1554C34.6473 50.9254 37.0002 56.7248 37.0002 56.7248L33.3864 57.8079C33.3864 57.8079 33.2085 41.6104 26.5216 41.4865C19.8169 41.344 21.4955 53.3588 22.7653 61.3156L9.03652 65.3648C9.01882 65.0429 8.992 64.7234 8.95605 64.4064C10.1727 63.9976 11.3806 63.6017 12.5965 63.1897C13.8582 62.7632 15.2165 62.2748 15.9625 61.178C16.4925 60.2663 16.7485 59.2211 16.6996 58.1676C16.8235 53.807 15.8651 49.1551 17.8631 45.2733C19.2392 42.609 20.6256 39.9294 23.4227 38.8551C25.2503 38.263 27.1659 37.9892 29.0861 38.0456C30.5346 38.1792 31.8221 39.7355 32.6308 40.9481C33.1289 41.7795 33.4441 42.7076 33.5554 43.6704C34.212 47.6488 34.0076 51.7173 33.7968 55.7407C34.702 55.6602 35.04 54.5337 35.1551 53.6268C35.5373 50.75 35.9099 47.8725 36.2921 45.0046C36.3796 43.8809 36.634 42.7765 37.0469 41.7279C37.61 40.7846 38.117 39.8089 38.5653 38.806C38.7794 37.9622 38.8609 37.0902 38.8068 36.2214C38.7799 34.3921 38.7531 32.5568 38.7263 30.7157C38.6997 28.8867 38.6909 26.9594 39.5793 25.3613C40.1422 24.4786 40.886 23.7253 41.7616 23.1512C42.6371 22.577 43.6244 22.1952 44.6584 22.0307C46.7267 21.7184 48.821 21.6144 50.9101 21.7201C51.9401 21.7201 53.1036 21.6316 53.7699 20.8414C54.0639 20.4223 54.2245 19.9243 54.2308 19.4125C54.2371 18.9007 54.0888 18.3989 53.8053 17.9727C53.2218 17.1352 52.4758 16.4237 51.6117 15.8805C50.8392 15.3301 48.8855 14.3798 48.0953 13.4117C49.9227 13.937 51.7169 14.5717 53.4682 15.3124C63.0552 19.463 56.3594 27.2419 56.3594 27.2419Z" fill="#384868"/>
<path d="M31.1105 57.573C31.1105 57.573 36.1301 46.6244 30.0362 42.1455C23.9423 37.6666 19.0498 45.8374 19.9776 52.3377C20.9054 58.838 21.5202 65.8387 27.4178 63.6033C31.0083 62.2442 31.1105 57.573 31.1105 57.573Z" fill="#F3CDA7"/>
<g opacity="0.5">
<path opacity="0.5" d="M31.3407 50.8152C31.3825 49.769 31.1612 48.7289 30.697 47.7904C30.1387 46.314 29.122 45.0554 27.7961 44.1991C27.1265 43.7886 26.3457 43.5969 25.5621 43.6504C24.7785 43.7039 24.0311 44 23.4234 44.4976C22.321 45.5509 22.2043 47.2448 22.1762 48.7689C22.1074 51.075 22.1611 53.3831 22.3371 55.6836C22.3646 57.0269 22.7397 58.3402 23.4258 59.4954C23.7821 60.0631 24.3151 60.4981 24.9428 60.7333C25.5704 60.9686 26.258 60.9911 26.8997 60.7973C27.2329 60.6827 27.5158 60.4555 27.6998 60.155C27.8838 59.8544 27.9574 59.4991 27.908 59.1502C27.7292 58.7251 27.4569 58.3458 27.1113 58.0405C26.1079 56.8785 25.9131 55.245 25.7618 53.7177C25.5367 52.5759 25.6485 51.3932 26.0837 50.3139C26.3332 49.8399 26.8723 49.3973 27.3608 49.617C27.5319 49.718 27.6655 49.872 27.7413 50.0556C27.8171 50.2393 27.8309 50.4427 27.7808 50.6349C27.6716 51.0166 27.4947 51.3756 27.2586 51.6947C26.9493 52.1308 26.7629 52.6418 26.7186 53.1745C26.7021 53.4407 26.768 53.7055 26.9074 53.9329C27.0468 54.1602 27.2529 54.3391 27.4976 54.4451C27.9957 54.6133 28.6185 54.384 29.0265 54.7139C29.5994 55.1774 29.2373 56.304 30.0814 56.5196C30.7252 56.6806 30.8282 56.1978 30.7831 55.7069C30.6356 55.0443 30.5726 54.3656 30.5956 53.6871C30.7477 52.707 31.2522 51.8146 31.3407 50.8152Z" fill="#F0C191"/>
</g>
</svg>
