<?xml version="1.0" encoding="UTF-8"?>
<svg xmlns="http://www.w3.org/2000/svg" xmlns:xlink="http://www.w3.org/1999/xlink" width="787.5pt" height="1049.999947pt" viewBox="0 0 787.5 1049.999947" version="1.2">
<defs>
<clipPath id="clip1">
  <path d="M 338 31 L 775.28125 31 L 775.28125 965 L 338 965 Z M 338 31 "/>
</clipPath>
<clipPath id="clip2">
  <path d="M 746 0.332031 L 775.28125 0.332031 L 775.28125 37 L 746 37 Z M 746 0.332031 "/>
</clipPath>
<clipPath id="clip3">
  <path d="M 483 760 L 552 760 L 552 1049.527344 L 483 1049.527344 Z M 483 760 "/>
</clipPath>
<clipPath id="clip4">
  <path d="M 615 760 L 675 760 L 675 1049.527344 L 615 1049.527344 Z M 615 760 "/>
</clipPath>
</defs>
<g id="surface1">
<g clip-path="url(#clip1)" clip-rule="nonzero">
<path style=" stroke:none;fill-rule:nonzero;fill:rgb(80.778503%,34.118652%,11.759949%);fill-opacity:1;" d="M 770.511719 477.257812 C 756.382812 364.199219 750.484375 350.316406 743.765625 319.097656 C 738.492188 294.289062 737.800781 293.722656 735.226562 279.90625 C 725.496094 213.953125 764.042969 233.171875 762.914062 132.300781 C 762.726562 106.167969 766.367188 99.953125 762.976562 45.179688 C 762.601562 38.648438 762.601562 31.675781 757.136719 31.675781 C 753.121094 31.675781 751.925781 35.757812 749.226562 41.976562 C 732.527344 79.976562 691.09375 154.410156 639.234375 197.433594 C 638.167969 106.734375 660.394531 79.476562 662.652344 63.898438 C 663.40625 58.621094 660.832031 55.984375 657.820312 55.984375 C 650.285156 55.984375 620.402344 97.753906 613.117188 108.808594 C 536.464844 225.699219 581.226562 183.804688 485.613281 198.566406 C 477.261719 199.820312 447.691406 205.664062 447.691406 205.664062 C 401.046875 212.949219 382.839844 194.355469 341.027344 212.445312 C 338.578125 213.449219 338.078125 215.585938 338.957031 217.21875 C 336.882812 220.800781 339.394531 223.125 345.609375 229.46875 C 349.878906 233.800781 355.78125 235.875 365.761719 241.714844 C 416.742188 271.738281 396.335938 265.019531 454.660156 300.507812 C 538.535156 351.574219 565.34375 370.351562 591.835938 484.355469 C 591.835938 484.355469 591.835938 484.292969 591.835938 484.292969 C 607.34375 576.9375 589.386719 601.371094 630.761719 682.523438 C 640.742188 702.121094 648.777344 707.273438 668.492188 737.167969 C 707.542969 796.589844 730.457031 831.261719 726.375 880.503906 C 721.289062 925.980469 694.105469 941.996094 680.105469 953.867188 C 677.53125 956.003906 661.710938 969.882812 696.492188 961.152344 C 718.214844 952.613281 750.230469 932.890625 758.582031 913.542969 C 780.679688 861.976562 773.902344 789.929688 774.464844 731.140625 C 774.589844 716.503906 777.980469 536.363281 770.511719 477.257812 "/>
</g>
<path style=" stroke:none;fill-rule:nonzero;fill:rgb(80.778503%,34.118652%,11.759949%);fill-opacity:1;" d="M 455.289062 892.5625 C 450.832031 885.59375 446.8125 880.378906 419.941406 877.929688 C 409.519531 876.988281 398.847656 876.484375 388.363281 877.300781 C 349.125 880.253906 286.410156 913.917969 248.550781 908.015625 C 231.539062 905.316406 199.707031 885.96875 187.84375 871.710938 C 159.96875 835.40625 160.34375 781.453125 139 761.226562 C 120.855469 743.953125 56.066406 769.644531 46.148438 840.683594 C 43.382812 860.214844 45.707031 866.625 52.238281 887.289062 C 57.761719 904.8125 66.988281 928.617188 78.164062 943.566406 C 85.574219 953.429688 119.160156 986.152344 155.824219 995.132812 C 191.105469 1003.675781 229.027344 1000.097656 265.628906 990.359375 C 309.574219 978.550781 312.714844 980.875 345.484375 968.125 C 362.8125 961.46875 415.988281 941.242188 439.089844 938.164062 C 453.027344 936.28125 461.0625 933.140625 462.507812 918.316406 C 463.136719 911.15625 457.234375 894.132812 455.289062 892.5625 "/>
<path style=" stroke:none;fill-rule:nonzero;fill:rgb(98.81897%,98.81897%,99.21875%);fill-opacity:1;" d="M 743.199219 813.671875 C 724.617188 717.007812 673.640625 714.304688 658.824219 634.851562 C 654.804688 609.160156 655.558594 532.90625 655.308594 525.054688 C 654.367188 499.679688 640.492188 464.695312 630.445312 442.398438 C 640.992188 447.546875 645.386719 450.5 652.734375 456.46875 C 665.667969 467.019531 674.707031 447.988281 641.371094 397.488281 C 649.34375 398.117188 652.921875 402.761719 655.558594 404.332031 C 674.265625 415.324219 675.898438 357.351562 615.003906 337.878906 C 596.480469 331.914062 594.535156 338.445312 550.527344 319.035156 C 487.746094 291.273438 467.53125 287.757812 444.804688 261.375 C 415.675781 227.898438 392.382812 225.449219 370.03125 219.230469 C 362.5625 217.15625 355.152344 214.265625 347.304688 214.203125 C 341.96875 214.140625 335.878906 211.0625 338.140625 228.902344 C 346.867188 297.367188 458.175781 333.859375 489.878906 384.800781 C 522.148438 437.121094 488.5 539.816406 481.089844 570.21875 C 471.800781 607.839844 433.378906 788.800781 437.332031 846.902344 C 434.820312 927.296875 433.628906 961.28125 560.257812 968.628906 C 593.65625 970.574219 667.800781 967.8125 681.171875 965.363281 C 718.527344 958.578125 733.65625 930.125 741.378906 893.507812 C 748.976562 860.027344 747.53125 836.664062 743.199219 813.671875 "/>
<path style=" stroke:none;fill-rule:nonzero;fill:rgb(98.81897%,98.81897%,99.21875%);fill-opacity:1;" d="M 186.710938 710.222656 C 175.914062 680.828125 164.175781 671.46875 161.222656 653.503906 C 159.339844 641.886719 157.894531 636.167969 152.121094 636.167969 C 147.851562 636.167969 147.914062 641.195312 142.011719 649.800781 C 131.96875 626.558594 130.835938 604.511719 130.210938 600.242188 C 129.207031 592.640625 123.179688 592.515625 121.230469 599.675781 C 111.625 632.148438 70.695312 679.320312 60.335938 692.636719 C 47.90625 708.652344 31.078125 722.535156 21.851562 764.933594 C 10.425781 817.757812 37.671875 873.972656 47.96875 877.679688 C 50.226562 881.195312 57.699219 880.441406 55.6875 872.839844 C 54.875 870.078125 47.96875 832.832031 50.605469 820.015625 C 52.171875 822.84375 57.445312 832.640625 63.285156 841.875 C 73.269531 857.957031 77.285156 869.699219 84.945312 866.371094 C 94.925781 862.414062 89.277344 815.433594 101.394531 794.078125 C 101.519531 794.515625 110.246094 822.152344 119.285156 846.273438 C 126.441406 865.617188 133.914062 862.414062 135.609375 855.945312 C 137.429688 849.222656 139.628906 823.722656 146.21875 809.527344 C 149.984375 823.285156 168.570312 874.664062 177.546875 859.964844 C 178.488281 858.457031 178.300781 854.625 178.300781 852.867188 C 179.742188 787.859375 208.371094 779.441406 186.710938 710.222656 "/>
<path style=" stroke:none;fill-rule:nonzero;fill:rgb(6.269836%,5.879211%,5.099487%);fill-opacity:1;" d="M 560.195312 238.449219 C 559.253906 239.265625 559.066406 240.585938 559.441406 241.714844 C 559.566406 250.699219 577.898438 249.882812 580.472656 242.65625 C 582.417969 237.195312 572.058594 227.582031 560.195312 238.449219 "/>
<path style=" stroke:none;fill-rule:nonzero;fill:rgb(6.269836%,5.879211%,5.099487%);fill-opacity:1;" d="M 659.890625 61.449219 C 661.460938 61.070312 662.464844 60.316406 665.667969 54.035156 C 670.816406 43.796875 675.648438 39.277344 672.636719 36.511719 C 668.992188 33.058594 665.667969 41.285156 662.277344 46.058594 C 662.777344 43.925781 663.59375 39.714844 664.160156 37.578125 C 664.660156 35.570312 663.09375 33.371094 660.832031 33.371094 C 657.253906 33.371094 657.441406 36.761719 655.121094 45.621094 C 651.855469 37.390625 653.234375 34.375 649.34375 34.375 C 642.1875 34.375 649.03125 48.195312 651.917969 55.292969 C 653.363281 58.808594 654.242188 62.765625 659.890625 61.449219 "/>
<g clip-path="url(#clip2)" clip-rule="nonzero">
<path style=" stroke:none;fill-rule:nonzero;fill:rgb(6.269836%,5.879211%,5.099487%);fill-opacity:1;" d="M 771.765625 15.847656 C 769.441406 15.847656 768.3125 17.921875 764.484375 22.378906 C 768.625 10.695312 770.195312 6.800781 767.121094 5.484375 C 763.101562 3.789062 761.46875 10.949219 759.273438 16.601562 C 758.140625 3.660156 758.457031 0.332031 754.816406 0.332031 C 750.546875 0.332031 752.492188 8.246094 753.433594 15.21875 C 750.167969 7.304688 745.585938 10.824219 746.652344 14.84375 C 754.625 46.121094 759.085938 38.960938 774.277344 21.625 C 776.347656 19.363281 774.78125 15.847656 771.765625 15.847656 "/>
</g>
<path style=" stroke:none;fill-rule:nonzero;fill:rgb(6.269836%,5.879211%,5.099487%);fill-opacity:1;" d="M 463.074219 228.085938 C 463.199219 232.421875 470.042969 232.421875 469.855469 227.835938 C 469.726562 223.5 462.949219 223.4375 463.074219 228.085938 "/>
<path style=" stroke:none;fill-rule:nonzero;fill:rgb(6.269836%,5.879211%,5.099487%);fill-opacity:1;" d="M 476.320312 249.191406 C 476.445312 253.777344 483.601562 253.777344 483.476562 248.9375 C 483.289062 244.355469 476.132812 244.355469 476.320312 249.191406 "/>
<path style=" stroke:none;fill-rule:nonzero;fill:rgb(6.269836%,5.879211%,5.099487%);fill-opacity:1;" d="M 449.199219 249.066406 C 449.324219 253.902344 456.921875 253.964844 456.730469 248.8125 C 456.605469 243.976562 449.011719 243.976562 449.199219 249.066406 "/>
<g clip-path="url(#clip3)" clip-rule="nonzero">
<path style=" stroke:none;fill-rule:nonzero;fill:rgb(6.269836%,5.879211%,5.099487%);fill-opacity:1;" d="M 542.617188 767.757812 C 538.160156 770.460938 534.328125 782.332031 532.695312 787.355469 C 532.507812 767.507812 514.679688 742.382812 507.523438 781.890625 C 505.199219 773.726562 495.59375 760.222656 489.753906 760.222656 C 487.808594 760.222656 486.050781 761.792969 485.675781 763.488281 C 483.226562 765.121094 483.917969 772.40625 484.042969 777.242188 C 484.355469 792.695312 489.191406 797.34375 492.140625 832.832031 C 492.390625 835.59375 495.78125 875.101562 496.535156 881.382812 C 509.71875 986.90625 498.542969 1041.742188 521.019531 1049.152344 C 527.863281 1051.414062 532.570312 1042.808594 534.582031 1035.460938 C 536.839844 1027.417969 535.460938 1015.484375 535.207031 996.078125 C 534.582031 945.953125 534.957031 861.222656 546.195312 812.164062 C 548.203125 803.496094 552.976562 780.570312 550.902344 771.839844 C 550.023438 768.199219 546.382812 765.558594 542.617188 767.757812 "/>
</g>
<g clip-path="url(#clip4)" clip-rule="nonzero">
<path style=" stroke:none;fill-rule:nonzero;fill:rgb(6.269836%,5.879211%,5.099487%);fill-opacity:1;" d="M 670.75 761.664062 C 662.527344 756.890625 658.070312 775.234375 653.738281 785.660156 C 653.988281 762.859375 635.40625 755.132812 633.648438 782.707031 C 629.316406 771.777344 628.3125 767.757812 624.796875 765.496094 C 622.789062 764.179688 619.585938 764.742188 618.265625 767.632812 C 614.0625 769.015625 616.445312 772.972656 618.394531 781.199219 C 635.15625 850.859375 632.265625 945.449219 636.347656 975.851562 C 643.253906 1028.109375 643.191406 1049.464844 657.695312 1049.464844 C 659.640625 1049.464844 661.210938 1048.273438 662.714844 1047.078125 C 673.578125 1038.410156 671.757812 1024.027344 672.445312 1001.289062 C 676.464844 868.066406 663.59375 903.617188 673.578125 778.625 C 674.332031 769.707031 674.894531 764.179688 670.75 761.664062 "/>
</g>
<path style=" stroke:none;fill-rule:nonzero;fill:rgb(6.269836%,5.879211%,5.099487%);fill-opacity:1;" d="M 389.558594 203.777344 C 386.542969 203.652344 342.09375 199.253906 334.6875 216.71875 C 327.78125 232.859375 340.023438 250.574219 350.632812 264.453125 C 358.417969 271.867188 357.097656 269.667969 362.5 263.449219 C 374.175781 250.070312 382.398438 236.3125 393.261719 217.40625 C 400.105469 206.101562 399.914062 204.28125 389.558594 203.777344 "/>
<path style=" stroke:none;fill-rule:nonzero;fill:rgb(98.81897%,98.81897%,99.21875%);fill-opacity:1;" d="M 735.101562 119.988281 C 733.28125 124.386719 731.273438 128.71875 729.074219 132.863281 C 713.945312 161.570312 699.632812 180.222656 670.5 209.304688 C 664.472656 215.273438 659.828125 218.351562 677.972656 217.472656 C 687.703125 217.03125 701.640625 223.375 710.617188 236.878906 C 714.761719 243.035156 718.714844 239.078125 722.609375 233.488281 C 743.515625 203.148438 745.019531 195.800781 753.371094 158.679688 C 755.820312 145.238281 757.136719 123.503906 757.328125 118.605469 C 758.832031 87.453125 768.25 38.710938 735.101562 119.988281 "/>
</g>
</svg>
