<svg width="102" height="102" viewBox="0 0 102 102" fill="none" xmlns="http://www.w3.org/2000/svg">
<g clip-path="url(#clip0)">
<path d="M63.5063 68.1447L63.0035 45.531L59.4773 41.4199L58.384 35.6123H44.1343L43.041 41.4199L40.2933 46.1072L39.1418 68.1447H63.5063Z" fill="#E2B48A"/>
<path d="M78.9966 57.5551C78.8271 55.3866 78.0857 53.3018 76.8479 51.5132C75.6102 49.7246 73.9203 48.2961 71.9506 47.3734L65.0712 44.1509L61.3004 42.373L59.2963 39.9298L59.4118 40.0701C59.4118 40.0701 58.8349 42.1547 57.9328 47.0682H44.107C43.6079 44.7578 43.341 42.4033 43.3102 40.0398L43.4265 39.9928L41.0749 42.373L30.0972 47.3734C28.1275 48.2961 26.4376 49.7246 25.1999 51.5132C23.9621 53.3018 23.2207 55.3866 23.0512 57.5551L22.0105 70.8629H80.0373L78.9966 57.5551Z" fill="#DBE2EB"/>
<g opacity="0.2">
<path opacity="0.2" d="M43.2783 40.1171C43.26 41.8708 43.4202 43.6218 43.7564 45.343L39.2859 47.4324C37.3157 48.3525 35.6253 49.7797 34.3879 51.5677C33.1504 53.3557 32.4102 55.4405 32.2431 57.6085L31.1952 70.9219H21.9626L22.9986 57.6141C23.1702 55.4459 23.9134 53.3618 25.1525 51.5743C26.3916 49.7867 28.0824 48.3595 30.0525 47.438L41.0765 42.3786L43.3022 39.9792L43.2783 40.1171Z" fill="#BAC2D3"/>
</g>
<path d="M53.0145 47.1056H47.6587L46.6379 49.4843L49.7123 53.3961L47.9249 70.8596H51.3475H55.182L53.5755 53.236L56.0092 49.234L53.0145 47.1056Z" fill="#EF5361"/>
<path d="M59.1122 39.4835L51.3499 47.0682L57.587 51.3538C57.6751 51.4139 57.776 51.4526 57.8817 51.4667C57.9875 51.4807 58.095 51.4698 58.1958 51.4348C58.2965 51.3998 58.3876 51.3416 58.4618 51.265C58.536 51.1884 58.5912 51.0954 58.6229 50.9936L61.298 42.373L59.1122 39.4835Z" fill="#D1CCEC"/>
<path d="M41.0742 42.373L44.3143 50.8502C44.3513 50.9463 44.4096 51.0328 44.4848 51.1033C44.5599 51.1737 44.6501 51.2262 44.7484 51.2569C44.8467 51.2875 44.9508 51.2955 45.0526 51.2803C45.1545 51.2651 45.2516 51.227 45.3367 51.1689L51.3499 47.0666L43.4298 39.3656L41.0742 42.373Z" fill="#D1CCEC"/>
<path d="M63.7069 19.2597C62.5116 19.1338 61.3562 20.7467 61.1339 22.8624C60.9115 24.9781 61.7028 26.7957 62.9021 26.9217C64.1014 27.0476 65.2529 25.4339 65.4752 23.3182C65.6975 21.2025 64.9054 19.3856 63.7069 19.2597Z" fill="#F0C191"/>
<path d="M37.6826 19.2597C38.8779 19.1338 40.0334 20.7467 40.2557 22.8624C40.478 24.9781 39.6843 26.7957 38.489 26.9217C37.2937 27.0476 36.1375 25.4339 35.9159 23.3182C35.6944 21.2025 36.4833 19.3856 37.6826 19.2597Z" fill="#F0C191"/>
<path d="M62.6591 12.7636L60.0477 5.99013L51.0613 6.59177L42.075 5.98694L38.2412 13.8226L38.8182 26.2539C38.8182 26.2539 39.4636 31.5132 42.3053 34.672C45.1469 37.8309 47.6053 39.9426 51.0613 39.8677C54.5174 39.9426 56.9757 37.8348 59.8174 34.672C62.6591 31.5092 63.3045 26.2539 63.3045 26.2539L62.6591 12.7636Z" fill="#F0C191"/>
<path d="M63.6025 6.82926C61.4868 0.362623 56.2489 1.55395 56.2489 1.55395C50.776 -2.72846 37.9312 2.42653 36.4968 9.8813C35.433 15.4371 37.2538 22.1603 38.0826 25.261C38.1222 25.4082 38.2094 25.5381 38.3306 25.6305C38.4519 25.7229 38.6003 25.7726 38.7527 25.7718C39.1639 25.7718 39.1607 25.4777 39.1129 25.0697C38.3615 18.6445 41.3673 10.4574 41.3673 10.4574C50.7258 12.6783 55.6999 7.26994 55.6999 7.26994C61.3378 8.37122 59.9743 12.5038 61.7187 16.4691C63.0622 19.5219 62.761 23.5565 62.5514 25.2538C62.5414 25.3218 62.5448 25.3912 62.5616 25.4579C62.5783 25.5245 62.608 25.5873 62.649 25.6425C62.69 25.6977 62.7415 25.7443 62.8005 25.7796C62.8595 25.8149 62.9249 25.8382 62.9929 25.8483C63.0609 25.8583 63.1302 25.8549 63.1969 25.8381C63.2636 25.8214 63.3263 25.7917 63.3815 25.7507C63.4367 25.7097 63.4833 25.6582 63.5186 25.5992C63.554 25.5402 63.5773 25.4748 63.5873 25.4068C64.232 21.5762 65.2058 11.7269 63.6025 6.82926Z" fill="#384868"/>
<path d="M77.2355 57.3575H24.7645C24.1108 57.3446 23.4618 57.4691 22.8593 57.7229C22.2568 57.9767 21.7143 58.3542 21.2669 58.8308C20.8195 59.3075 20.4771 59.8727 20.2619 60.49C20.0466 61.1073 19.9634 61.7629 20.0175 62.4145L22.3244 93.8599C22.477 95.0524 23.0669 96.1458 23.9797 96.9282C24.8925 97.7105 26.0633 98.1262 27.2651 98.0945H74.7357C75.9375 98.1262 77.1082 97.7105 78.0211 96.9282C78.9339 96.1458 79.5237 95.0524 79.6763 93.8599L81.9833 62.4145C82.0374 61.7629 81.9541 61.1072 81.7388 60.4898C81.5236 59.8725 81.1811 59.3072 80.7336 58.8305C80.2861 58.3538 79.7435 57.9764 79.1409 57.7227C78.5383 57.469 77.8892 57.3445 77.2355 57.3575Z" fill="#43567C"/>
<path d="M79.0188 98.0953H22.9809C22.4631 98.0953 21.9665 98.301 21.6004 98.6672C21.2343 99.0333 21.0286 99.5299 21.0286 100.048C21.0286 100.566 21.2343 101.062 21.6004 101.428C21.9665 101.794 22.4631 102 22.9809 102H79.0188C79.5366 102 80.0331 101.794 80.3993 101.428C80.7654 101.062 80.9711 100.566 80.9711 100.048C80.9711 99.5299 80.7654 99.0333 80.3993 98.6672C80.0331 98.301 79.5366 98.0953 79.0188 98.0953Z" fill="#43567C"/>
<path d="M80.9713 100.045C80.9716 100.556 80.7715 101.047 80.414 101.413C80.0564 101.778 79.5699 101.989 79.0588 102C79.1587 101.77 79.2084 101.521 79.2046 101.27C79.2044 100.752 78.9985 100.255 78.6321 99.8883C78.2657 99.5218 77.7689 99.3157 77.2507 99.3153H21.1714C21.3152 98.9533 21.5647 98.6429 21.8873 98.4246C22.2099 98.2063 22.5908 98.0902 22.9803 98.0913H79.0173C79.5354 98.0917 80.0322 98.2977 80.3985 98.6641C80.7649 99.0304 80.9708 99.5272 80.9713 100.045Z" fill="#384868"/>
</g>
<defs>
<clipPath id="clip0">
<rect width="102" height="102" fill="white"/>
</clipPath>
</defs>
</svg>
