<svg width="45" height="35" viewBox="0 0 45 35" fill="none" xmlns="http://www.w3.org/2000/svg">
<path d="M43.6816 18.6191C44.4727 17.8281 44.4727 16.5098 43.6816 15.6309L28.916 0.865234C27.5098 -0.453125 25.3125 0.513672 25.3125 2.35938V10.7969H13.3594C12.1289 10.7969 11.25 11.7637 11.25 12.9062V21.3438C11.25 22.5742 12.1289 23.4531 13.3594 23.4531H25.3125V31.8906C25.3125 33.8242 27.5977 34.7031 28.916 33.3848L43.6816 18.6191ZM16.875 32.9453V29.4297C16.875 28.9023 16.3477 28.375 15.8203 28.375H8.4375C6.85547 28.375 5.625 27.1445 5.625 25.5625V8.6875C5.625 7.19336 6.85547 5.875 8.4375 5.875H15.8203C16.3477 5.875 16.875 5.43555 16.875 4.82031V1.30469C16.875 0.777344 16.3477 0.25 15.8203 0.25H8.4375C3.7793 0.25 0 4.0293 0 8.6875V25.5625C0 30.2207 3.7793 34 8.4375 34H15.8203C16.3477 34 16.875 33.5605 16.875 32.9453Z" fill="#F2F5FA"/>
</svg>
